<svg xmlns="http://www.w3.org/2000/svg" fill="none" viewBox="0 0 863 908"><path d="M0 0h863v908H0z"/><path fill="#231F1F" d="M184 341c0 15-7 31-10 47-5 20-12 41-14 63v34c1 19 5 38 9 57 1 6 6 17 4 24-3 6-15 10-21 13-15 9-27 21-36 35-5 8-7 20-9 30l-9 36-1 35c0 13 4 28 0 41-2 8-11 15-17 21-9 9-19 23-20 37-1 18 22 30 35 37l11 7c7 8 0 22 5 31 4 6 12 10 18 13 17 7 42 9 59 0 8-4 15-11 17-20 1-5 1-11 4-15 4-6 11-6 17-9 12-6 23-18 24-32 2-24-18-33-28-51-7-12-13-29-14-42-1-15 2-29 4-43 2-8-1-15 2-22 2-4 6-7 10-9 7-5 15-14 25-11 12 4 23 9 36 11 22 4 46 2 68 2 26 0 53 0 79-6 19-5 38-12 56-20 7-2 18-10 26-9 5 1 10 5 14 8 6 4 13 8 17 14 5 8 2 19 2 29 0 13 4 27 3 41-2 20-11 36-22 53-9 13-21 27-19 44 2 13 12 26 24 32 5 3 12 3 16 7 3 3 3 8 4 13 1 6 4 12 8 18 17 22 56 17 77 4 3-3 8-5 10-9 5-9-1-21 4-30 3-7 13-11 20-15 11-4 19-13 25-23 3-8 1-17-2-24-8-21-33-34-36-57-1-8 1-16 1-23v-55c-1-13-6-25-9-36-2-8-4-18-8-25-10-17-28-30-44-40-6-3-19-7-22-14-2-4 2-10 4-13 4-10 6-21 8-31 5-27-1-56-4-83-2-19-3-39-7-57a231 231 0 0 0-19-50c-1-3-4-6-2-9 2-4 9-6 13-7l29-15 63-32c20-11 41-24 65-22 9 0 17 4 25 7l28 9c10 4 20 7 30 5 13-3 23-13 25-26 1-5-1-12 1-16 4-8 14-10 20-16 13-15 5-36-6-49-6-7-15-18-25-19-10 0-21 7-31 4-4-1-8-5-12-7-13-8-28-18-43-9-9 6-16 15-21 25-3 5-4 13-8 17-3 4-7 6-11 8-14 7-30 9-44 14-22 7-42 16-61 28l-53 38-14 8-7 3c-3-1-4-4-3-6 2-5 7-9 10-12 18-25 24-57 16-86-2-8-6-15-11-20-3-4-9-6-10-11l2-10 1-23c-3-36-30-65-65-71-12-2-24-2-36 1-7 2-15 8-22 6-9-1-16-7-25-9-25-5-53 0-75 13a52 52 0 0 0-26 52l4 18c1 3 3 7 1 11-1 3-4 4-7 6-5 2-10 5-14 9a57 57 0 0 0-20 43c-1 16 1 33 6 49 1 6 7 15 3 21-6 8-18 14-26 19-27 17-58 26-84 44-13 8-25 18-35 30-9 10-18 21-30 28-6 3-11 0-17 0-13-1-31 1-39 12-8 10-3 26-5 38l-5 17c-3 4-6 8-7 13-2 4-1 9 0 14 3 15 13 32 29 37 7 3 14 1 21-2l10-5c5-1 10 4 14 5 10 4 20 2 28-5s11-16 13-26l5-32c0-6 0-12 2-17 2-9 9-14 15-19l28-22c5-5 11-11 18-12Z"/><path fill="#01A54F" d="M352 17c-18 2-47 4-56 23-4 9-4 19-3 29 2 8 4 16 8 24 2 3 5 7 3 11-4 7-16 9-22 12-12 6-21 17-24 30-2 9-2 19 0 29 1 12 1 27 9 38 2 3 6 5 10 8l16 11 18 6c17 6 35 10 53 12h30c14 0 29 0 43-3 35-5 77-18 89-55l3-24c0-10-1-20-3-29-4-13-22-15-24-28-2-9 6-18 7-26 1-11-6-19-9-28-3-7-2-14-8-20a69 69 0 0 0-67-15c-5 1-10 4-14 6-3 2-6 4-9 4-7 0-16-7-22-11-9-4-19-5-28-4Z"/><path fill="#0D733D" d="M369 17c-1 0 0 0 0 0 1 0 0 0 0 0Zm-30 1 3 1-3-1Z"/><path fill="#165132" d="M373 18c-1 0 0 0 0 0 1 0 0 0 0 0Z"/><path fill="#0D733D" d="m439 18 12 1c-4-2-8-1-12-1Z"/><path fill="#165132" d="M334 19c-1 0 0 0 0 0 1 0 0 0 0 0Zm100 0c-1 0 0 0 0 0 1 0 0 0 0 0Zm26 1c-1 0 0 0 0 0 1 0 0 0 0 0Z"/><path fill="#0D733D" d="M326 21c-1 0 0 0 0 0 1 0 0 0 0 0Zm100 0c-1 0 0 0 0 0 1 0 0 0 0 0Z"/><path fill="#165132" d="M464 21c-1 0 0 0 0 0 1 0 0 0 0 0Zm3 1c-1 0 0 0 0 0 1 0 0 0 0 0Z"/><path fill="#0D733D" d="M320 23c-1 0 0 0 0 0 1 0 0 0 0 0Zm21 0 3 1-3-1Z"/><path fill="#231F1F" d="M344 23c-20 3-38 15-43 35-8 29 18 59 48 54 26-4 45-28 45-54 0-6 1-13-2-18-2-4-7-7-11-9-11-6-24-9-37-8Z"/><path fill="#165132" d="M357 23c-1 0 0 0 0 0 1 0 0 0 0 0Z"/><path fill="#0D733D" d="M317 24c-1 0 0 0 0 0 1 0 0 0 0 0Zm19 0 3 1-3-1Zm31 1c-1 0 0 0 0 0 1 0 0 0 0 0Z"/><path fill="#165132" d="M332 26c-1 0 0 0 0 0 1 0 0 0 0 0Z"/><path fill="#613B1F" d="m348 31 10 1c-3-2-7-1-10-1Z"/><path fill="#878485" d="M346 32c-1 0 0 0 0 0 1 0 0 0 0 0Z"/><path fill="#585556" d="M359 32c-1 0 0 0 0 0 1 0 0 0 0 0Z"/><path fill="#FFF" d="M311 62c12-2 23-9 35-10 14-1 26 5 39 5-1-6-4-10-8-14-16-16-41-12-56 3-5 4-9 9-10 16Z"/><path fill="#585556" d="M363 33c-1 0 0 0 0 0 1 0 0 0 0 0Zm-26 1 1 1-1-1Z"/><path fill="#165132" d="M444 36c-1 0 0 0 0 0 1 0 0 0 0 0Z"/><path fill="#231F1F" d="M445 36c-5 1-11 2-16 5-23 14-22 44-8 64 12 14 30 21 49 18 24-3 37-30 30-52-8-23-31-38-55-35Z"/><path fill="#165132" d="M457 36c-1 0 0 0 0 0 1 0 0 0 0 0Z"/><path fill="#0D733D" d="M467 38c-1 0 0 0 0 0 1 0 0 0 0 0Z"/><path fill="#165132" d="M434 39c-1 0 0 0 0 0 1 0 0 0 0 0Zm-41 1v5-5Z"/><path fill="#D6D5D5" d="m375 41 2 2c-1-2 0-2-2-2Z"/><path fill="#165132" d="m294 42-1 7c1-3 2-5 1-7Z"/><path fill="#0D733D" d="M394 42v5-5Z"/><path fill="#585556" d="m378 43 1 1-1-1Zm-57 1-6 7c3-2 5-4 6-7Z"/><path fill="#613B1F" d="M439 50c6 1 15-3 22-3-7-3-15 1-22 3Z"/><path fill="#165132" d="M394 47v18c2-5 2-14 0-18Z"/><path fill="#9F9D9D" d="M454 47c-1 0 0 0 0 0 1 0 0 0 0 0Z"/><path fill="#613B1F" d="M463 47c-1 0 0 0 0 0 1 0 0 0 0 0Z"/><path fill="#FFF" d="M425 62c12 0 25-2 36 1 9 3 17 9 26 11-4-12-12-21-23-26-15-3-29 2-39 14Z"/><path fill="#165132" d="M498 48v3-3Z"/><path fill="#D6D5D5" d="m382 49 2 5c0-3 0-4-2-5Z"/><path fill="#0D733D" d="m302 51-1 5c1-2 2-3 1-5Z"/><path fill="#165132" d="M292 52v17c2-6 2-12 0-17Z"/><path fill="#D6D5D5" d="M337 53h13c-4-2-9-1-13 0Z"/><path fill="#165132" d="M499 52v3-3Z"/><path fill="#9F9D9D" d="M343 53c-1 0 0 0 0 0 1 0 0 0 0 0Z"/><path fill="#585556" d="M345 53c-1 0 0 0 0 0 1 0 0 0 0 0Zm17 0c-1 0 0 0 0 0 1 0 0 0 0 0Z"/><path fill="#9F9D9D" d="M364 53c-1 0 0 0 0 0 1 0 0 0 0 0Z"/><path fill="#D6D5D5" d="M366 53c-1 0 0 0 0 0 1 0 0 0 0 0Z"/><path fill="#878485" d="M338 54c-1 0 0 0 0 0 1 0 0 0 0 0Z"/><path fill="#613B1F" d="M340 54c-1 0 0 0 0 0 1 0 0 0 0 0Z"/><path fill="#BDBBBC" d="M385 54v3-3Z"/><path fill="#585556" d="M386 54v3-3Zm46 0 1 1-1-1Z"/><path fill="#BDBBBC" d="m427 58 1 1-1-1Zm50 0 2 2c-1-2 0-2-2-2Z"/><path fill="#D6D5D5" d="m315 60 3 1-3-1Zm109 1c2 2 5 2 8 2l-8-2Z"/><path fill="#9F9D9D" d="m442 62 9 1c-3-2-6-1-9-1Z"/><path fill="#BDBBBC" d="M457 63c-1 0 0 0 0 0 1 0 0 0 0 0Z"/><path fill="#D6D5D5" d="M463 64c-1 0 0 0 0 0 1 0 0 0 0 0Z"/><path fill="#165132" d="M299 65v7-7Z"/><path fill="#D6D5D5" d="M466 65c-1 0 0 0 0 0 1 0 0 0 0 0Z"/><path fill="#0D733D" d="M410 66v5-5Z"/><path fill="#165132" d="M392 70v4-4Z"/><path fill="#0D733D" d="M500 70v3-3Zm6 0 1 1-1-1Z"/><path fill="#165132" d="M410 71v9-9Z"/><path fill="#716F6F" d="M487 71v4-4Z"/><path fill="#0D733D" d="M299 72v4-4Zm110 0v6-6Z"/><path fill="#165132" d="M501 73v5-5Zm-110 1v3-3Z"/><path fill="#9F9D9D" d="M486 74c-1 0 0 0 0 0 1 0 0 0 0 0Z"/><path fill="#0D733D" d="M508 74v4-4Zm-208 2v5-5Z"/><path fill="#165132" d="M301 79v3-3Z"/><path fill="#0D733D" d="M502 79v14c2-4 2-10 0-14Zm-92 1v5-5Zm96 11v3-3Zm-200 1 2 3c0-2-1-3-2-3Z"/><path fill="#165132" d="m414 93 1 1-1-1Zm87 0-1 4c1-2 2-2 1-4Z"/><path fill="#0D733D" d="m505 94 1 1-1-1Zm-197 1 2 3c0-2-1-3-2-3Zm107 1 2 3c0-2-1-3-2-3Zm89 1 1 1-1-1Z"/><path fill="#165132" d="M304 98v5-5Zm195 0v3-3Zm3 5v4-4Zm-199 1 1 1-1-1Z"/><path fill="#613B1F" d="M522 104v6-6Z"/><path fill="#0D733D" d="m496 105-1 4c1-2 2-2 1-4Zm5 1v6-6Zm-202 3c-1 0 0 0 0 0 1 0 0 0 0 0Zm61 0c-1 0 0 0 0 0 1 0 0 0 0 0Zm391 0 4 1-4-1Z"/><path fill="#165132" d="M295 110c-1 0 0 0 0 0 1 0 0 0 0 0Z"/><path fill="#0D733D" d="M357 110c-1 0 0 0 0 0 1 0 0 0 0 0Z"/><path fill="#01A54F" d="M747 111c-5 2-9 8-12 12-8 12-11 26-24 35-5 4-11 8-17 10-6 3-13 4-19 6a459 459 0 0 0-78 31c-12 7-23 17-34 25l-23 18c-3 2-8 4-9 8 0 5 5 11 7 16 2 3 4 10 8 11s10-2 13-4l33-17 54-28c21-11 43-24 66-29 21-4 44 9 63 16 10 5 21 12 32 6 5-2 14-6 15-12 1-7-4-16-1-22 4-9 18-9 23-17 7-11 2-29-5-38-3-4-6-8-11-10-6-1-12 1-17 2-7 1-15 1-22-2-13-4-26-24-42-17Z"/><path fill="#0D733D" d="M293 111c-1 0 0 0 0 0 1 0 0 0 0 0Zm62 0c-1 0 0 0 0 0 1 0 0 0 0 0Z"/><path fill="#165132" d="M762 111c-1 0 0 0 0 0 1 0 0 0 0 0Z"/><path fill="#0D733D" d="M291 112c-1 0 0 0 0 0 1 0 0 0 0 0Zm42 0c-1 0 0 0 0 0 1 0 0 0 0 0Zm17 0c-1 0 0 0 0 0 1 0 0 0 0 0Z"/><path fill="#165132" d="M502 112v3-3Z"/><path fill="#0D733D" d="m337 113 10 1c-3-2-7-1-10-1Zm143 7c-1 0 0 0 0 0 1 0 0 0 0 0Z"/><path fill="#165132" d="M444 121c-1 0 0 0 0 0 1 0 0 0 0 0Z"/><path fill="#0D733D" d="M478 121c-1 0 0 0 0 0 1 0 0 0 0 0Z"/><path fill="#165132" d="m448 123 4 1-4-1Zm6 1 13 1c-4-2-9-1-13-1Zm329 2c-1 0 0 0 0 0 1 0 0 0 0 0Zm36 1 11 2c-3-3-7-2-11-2Zm-30 1c-1 0 0 0 0 0 1 0 0 0 0 0Z"/><path fill="#0D733D" d="M820 128c-1 0 0 0 0 0 1 0 0 0 0 0Zm-28 1c-1 0 0 0 0 0 1 0 0 0 0 0Zm24 0c-1 0 0 0 0 0 1 0 0 0 0 0Z"/><path fill="#165132" d="M794 130c5 2 12 1 18 1-5-3-12-1-18-1Zm-535 9-1 5c1-2 2-3 1-5Zm-3 9v32l1-10c0-7 2-16-1-22Zm272 0v8-8Z"/><path fill="#231F1F" d="M353 152v6h6v-6h-6Z"/><path fill="#165132" d="M352 153v4-4Z"/><path fill="#0D733D" d="M359 153v4-4Z"/><path fill="#231F1F" d="M414 153v10c6-1 6-9 0-10Z"/><path fill="#165132" d="M413 154v7-7Z"/><path fill="#0D733D" d="M419 155v6-6Zm-7 1v5-5Zm117 0-2 31c4-6 3-14 3-21l-1-10Zm317 11v3-3Zm-153 1 3 1-3-1Zm-2 1c-1 0 0 0 0 0 1 0 0 0 0 0Zm-4 1c-1 0 0 0 0 0 1 0 0 0 0 0Zm-3 1c-1 0 0 0 0 0 1 0 0 0 0 0Zm-4 1c-1 0 0 0 0 0 1 0 0 0 0 0Zm165 0v3-3Zm-588 1v9-9Z"/><path fill="#165132" d="M670 174h5-5Z"/><path fill="#0D733D" d="M676 173c-1 0 0 0 0 0 1 0 0 0 0 0Zm-6 2c-1 0 0 0 0 0 1 0 0 0 0 0Zm-3 1c-1 0 0 0 0 0 1 0 0 0 0 0Zm-3 1c-1 0 0 0 0 0 1 0 0 0 0 0Zm-3 1c-1 0 0 0 0 0 1 0 0 0 0 0Zm-3 1c-1 0 0 0 0 0 1 0 0 0 0 0Zm-3 1c-1 0 0 0 0 0 1 0 0 0 0 0Zm-5 1 3 1-3-1Z"/><path fill="#165132" d="M257 182v6-6Z"/><path fill="#0D733D" d="M646 183c-1 0 0 0 0 0 1 0 0 0 0 0Zm-5 2c-1 0 0 0 0 0 1 0 0 0 0 0Zm-383 2v3-3Zm378 0c-1 0 0 0 0 0 1 0 0 0 0 0Zm-110 1-1 6c2-3 2-4 1-6Zm105 1c-1 0 0 0 0 0 1 0 0 0 0 0Zm-2 1c-1 0 0 0 0 0 1 0 0 0 0 0Zm-370 2 1 1-1-1Zm363 1c-1 0 0 0 0 0 1 0 0 0 0 0Zm-2 1c-1 0 0 0 0 0 1 0 0 0 0 0Zm-2 1c-1 0 0 0 0 0 1 0 0 0 0 0Zm-358 1v3-3Zm356 0c-1 0 0 0 0 0 1 0 0 0 0 0Zm-93 1 1 1-1-1Zm91 0c-1 0 0 0 0 0 1 0 0 0 0 0Zm206 1v3-3Zm-211 1c-1 0 0 0 0 0 1 0 0 0 0 0Zm-348 1 1 1-1-1Zm346 0c-1 0 0 0 0 0 1 0 0 0 0 0Zm-2 1c-1 0 0 0 0 0 1 0 0 0 0 0Zm216 2v3-3Z"/><path fill="#165132" d="m520 204-2 5c2-2 2-3 2-5Z"/><path fill="#0D733D" d="M707 206c6 2 15 0 21 0-6-3-14-1-21 0Z"/><path fill="#165132" d="M708 207c-1 0 0 0 0 0 1 0 0 0 0 0Zm27 0c-1 0 0 0 0 0 1 0 0 0 0 0Zm-31 1c-1 0 0 0 0 0 1 0 0 0 0 0Zm35 0c-1 0 0 0 0 0 1 0 0 0 0 0Z"/><path fill="#0D733D" d="M822 208v8-8Z"/><path fill="#165132" d="M742 209c-1 0 0 0 0 0 1 0 0 0 0 0Zm3 1c-1 0 0 0 0 0 1 0 0 0 0 0Zm-51 1c-1 0 0 0 0 0 1 0 0 0 0 0Zm54 0c-1 0 0 0 0 0 1 0 0 0 0 0Zm-59 2c-1 0 0 0 0 0 1 0 0 0 0 0Z"/><path fill="#0D733D" d="M754 213c-1 0 0 0 0 0 1 0 0 0 0 0Z"/><path fill="#165132" d="M686 214c-1 0 0 0 0 0 1 0 0 0 0 0Z"/><path fill="#0D733D" d="M757 214c-1 0 0 0 0 0 1 0 0 0 0 0Z"/><path fill="#165132" d="M684 215c-1 0 0 0 0 0 1 0 0 0 0 0Z"/><path fill="#0D733D" d="M760 215c-1 0 0 0 0 0 1 0 0 0 0 0Z"/><path fill="#165132" d="M682 216c-1 0 0 0 0 0 1 0 0 0 0 0Zm80 0c-1 0 0 0 0 0 1 0 0 0 0 0Z"/><path fill="#0D733D" d="M765 217c-1 0 0 0 0 0 1 0 0 0 0 0Z"/><path fill="#165132" d="M677 218c-1 0 0 0 0 0 1 0 0 0 0 0Z"/><path fill="#0D733D" d="M767 218c-1 0 0 0 0 0 1 0 0 0 0 0Zm5 2c-1 0 0 0 0 0 1 0 0 0 0 0Zm5 2c-1 0 0 0 0 0 1 0 0 0 0 0Z"/><path fill="#165132" d="M664 225c-1 0 0 0 0 0 1 0 0 0 0 0Z"/><path fill="#0D733D" d="M784 225c-1 0 0 0 0 0 1 0 0 0 0 0Z"/><path fill="#165132" d="M662 226c-1 0 0 0 0 0 1 0 0 0 0 0Z"/><path fill="#0D733D" d="M786 226c-1 0 0 0 0 0 1 0 0 0 0 0Z"/><path fill="#165132" d="M810 226c-1 0 0 0 0 0 1 0 0 0 0 0Zm-150 1c-1 0 0 0 0 0 1 0 0 0 0 0Z"/><path fill="#0D733D" d="M788 227c-1 0 0 0 0 0 1 0 0 0 0 0Z"/><path fill="#165132" d="M808 227c-1 0 0 0 0 0 1 0 0 0 0 0Zm-150 1c-1 0 0 0 0 0 1 0 0 0 0 0Z"/><path fill="#0D733D" d="M790 228c-1 0 0 0 0 0 1 0 0 0 0 0Z"/><path fill="#165132" d="M656 229c-1 0 0 0 0 0 1 0 0 0 0 0Zm147 0c-1 0 0 0 0 0 1 0 0 0 0 0Zm-149 1c-1 0 0 0 0 0 1 0 0 0 0 0Zm-2 1c-1 0 0 0 0 0 1 0 0 0 0 0Zm-163 1c-1 0 0 0 0 0 1 0 0 0 0 0Z"/><path fill="#0D733D" d="M298 234c-1 0 0 0 0 0 1 0 0 0 0 0Zm186 0c-1 0 0 0 0 0 1 0 0 0 0 0Z"/><path fill="#165132" d="M300 235c-1 0 0 0 0 0 1 0 0 0 0 0Zm182 0c-1 0 0 0 0 0 1 0 0 0 0 0Zm-179 1c-1 0 0 0 0 0 1 0 0 0 0 0Zm177 0c-1 0 0 0 0 0 1 0 0 0 0 0Z"/><path fill="#0D733D" d="M307 237c-1 0 0 0 0 0 1 0 0 0 0 0Zm168 0 3 1-3-1Z"/><path fill="#165132" d="M641 237c-1 0 0 0 0 0 1 0 0 0 0 0Z"/><path fill="#0D733D" d="M310 238c-1 0 0 0 0 0 1 0 0 0 0 0Z"/><path fill="#165132" d="M639 238c-1 0 0 0 0 0 1 0 0 0 0 0Z"/><path fill="#613B1F" d="m263 241 8-1c-3-2-6-2-8 1Z"/><path fill="#0D733D" d="M313 239c-1 0 0 0 0 0 1 0 0 0 0 0Z"/><path fill="#165132" d="M637 239c-1 0 0 0 0 0 1 0 0 0 0 0Zm-377 1 3 1-3-1Z"/><path fill="#F5811F" d="M265 241c4 11 12 20 18 31 10 20 18 41 29 61 10 17 22 34 31 52 4 8 0 17 0 26 0 12 3 25 11 35 16 20 57 27 76 7 12-13 13-36 9-52-2-7-8-16-7-22 0-4 4-7 6-10l13-19 43-64 11-16c1-3 4-5 3-8 0-4-3-7-6-9l-6-2c-3 8-8 17-13 25l-21 33-31 43c-6 7-13 19-22 23h-29c-6 1-16 6-21 3-8-5-13-18-18-25-13-23-24-46-34-69-8-17-18-49-42-43Z"/><path fill="#A35B1F" d="M272 240c-1 0 0 0 0 0 1 0 0 0 0 0Z"/><path fill="#165132" d="M316 240c-1 0 0 0 0 0 1 0 0 0 0 0Zm153 0c-1 0 0 0 0 0 1 0 0 0 0 0Zm166 0c-1 0 0 0 0 0 1 0 0 0 0 0Z"/><path fill="#0D733D" d="M259 241c-1 0 0 0 0 0 1 0 0 0 0 0Z"/><path fill="#01A54F" d="M189 559c10-1 18-12 28-12 6 0 11 4 15 7l7 7c-24 7-48 18-69 32-13 7-23 17-32 29-11 16-17 40-19 60v41c1 10 4 20 1 31-5 17-24 26-35 40-6 7-10 18-5 27 4 6 12 9 18 13 8 5 16 10 21 19 6 9 3 24 10 32 3 3 7 4 11 5 16 3 40 2 49-14 4-8 2-19 9-26 6-7 15-3 22-6 8-3 10-15 10-22 0-8-6-14-11-19-8-9-20-19-25-30-3-7-2-15-3-21-2-23-2-45 2-67 1-9 0-21 5-28 6-10 22-16 32-22l17-10c2-1 5-3 8-3 6-1 5 8 7 12 3 4 10 5 15 6 10 2 20-2 30-3h17c24 0 48 8 72 5 32-3 66-13 96-25 3-1 6-2 7-6 1-3-2-12 4-12 5-1 11 6 15 8l27 19c5 3 12 7 16 12 5 7 4 22 5 31 3 23 4 46 1 70-1 7 0 16-4 23-7 11-18 20-26 31-5 6-10 13-9 22l2 7c1 3 3 7 6 9 8 5 23 2 29 10 4 4 2 13 3 18 3 15 14 22 29 24 10 0 25 1 33-7 5-7 4-16 6-24s6-15 12-20c10-10 31-15 34-30 0-6-3-12-6-17-9-17-29-25-36-43-6-14 1-30 1-44 0-35-3-76-25-104-17-21-41-34-65-44l-22-9c-3-1-7-2-8-5-1-4 4-7 7-8 5-4 12-5 18-3 4 1 10 7 14 5 3-2 3-5 4-7l6-19c7-27 3-54 0-81l-8-59-4-25c-3-10-9-18-14-26-11-18-19-35-33-50-8 7-14 19-20 28-12 17-25 35-36 53l-15 22c-3 3-6 7-7 11-2 4 1 9 3 13s4 8 4 13c6 25-3 56-31 62s-60-13-66-41l-1-16c1-7 3-14 1-20-4-15-15-27-23-40l-34-69-15-28c-2-3-4-8-7-9-7-4-17 7-20 12-14 16-20 36-28 56-6 13-12 26-16 40l-10 42c-7 26-15 53-14 81 0 21 4 42 8 63l5 23Z"/><path fill="#613B1F" d="M277 241c-1 0 0 0 0 0 1 0 0 0 0 0Z"/><path fill="#165132" d="M319 241c-1 0 0 0 0 0 1 0 0 0 0 0Zm314 0c-1 0 0 0 0 0 1 0 0 0 0 0Z"/><path fill="#613B1F" d="M279 242c-1 0 0 0 0 0 1 0 0 0 0 0Zm2 1c-1 0 0 0 0 0 1 0 0 0 0 0Z"/><path fill="#165132" d="M629 243c-1 0 0 0 0 0 1 0 0 0 0 0Zm-2 1c-1 0 0 0 0 0 1 0 0 0 0 0Zm-293 1 3 1-3-1Zm6 1c-1 0 0 0 0 0 1 0 0 0 0 0Z"/><path fill="#585556" d="M496 249c-1 0 0 0 0 0 1 0 0 0 0 0Z"/><path fill="#165132" d="m364 250 12 1c-4-2-8-1-12-1Z"/><path fill="#0D733D" d="m376 250 13 1h25c-4-2-9-1-13-1h-25Z"/><path fill="#A35B1F" d="M497 250c-1 0 0 0 0 0 1 0 0 0 0 0Z"/><path fill="#165132" d="M382 251c5 2 12 1 18 1-5-3-12-1-18-1Z"/><path fill="#0D733D" d="M491 251c-1 0 0 0 0 0 1 0 0 0 0 0Z"/><path fill="#01A54F" d="M294 256a776 776 0 0 0 57 113c2 3 4 7 7 9 4 2 8 0 11-1 6-2 12-4 19-4 7-1 17 4 24 0 4-2 7-7 10-10l15-19c15-20 29-40 42-61 5-10 13-21 16-32-11 1-22 5-33 8-19 4-39 6-58 8-28 1-56-1-83-6l-27-5Z"/><path fill="#613B1F" d="M500 251c-1 0 0 0 0 0 1 0 0 0 0 0Z"/><path fill="#165132" d="M614 251c-1 0 0 0 0 0 1 0 0 0 0 0Z"/><path fill="#0D733D" d="M488 252c-1 0 0 0 0 0 1 0 0 0 0 0Z"/><path fill="#165132" d="M612 252c-1 0 0 0 0 0 1 0 0 0 0 0Z"/><path fill="#0D733D" d="M484 253c-1 0 0 0 0 0 1 0 0 0 0 0Z"/><path fill="#165132" d="M610 253c-1 0 0 0 0 0 1 0 0 0 0 0Z"/><path fill="#0D733D" d="M480 254c-1 0 0 0 0 0 1 0 0 0 0 0Z"/><path fill="#165132" d="M608 254c-1 0 0 0 0 0 1 0 0 0 0 0Zm-314 1c3 2 6 2 10 2-3-2-7-2-10-2Z"/><path fill="#0D733D" d="M476 255c-1 0 0 0 0 0 1 0 0 0 0 0Zm54 0v4-4Z"/><path fill="#165132" d="M606 255c-1 0 0 0 0 0 1 0 0 0 0 0Zm-141 2h7-7Z"/><path fill="#0D733D" d="M473 256c-1 0 0 0 0 0 1 0 0 0 0 0Z"/><path fill="#165132" d="M604 256c-1 0 0 0 0 0 1 0 0 0 0 0Zm-2 1c-1 0 0 0 0 0 1 0 0 0 0 0Zm-296 1 4 1-4-1Zm146 1h10c-3-2-7-1-10 0Zm148-1c-1 0 0 0 0 0 1 0 0 0 0 0Z"/><path fill="#0D733D" d="M316 260c-1 0 0 0 0 0 1 0 0 0 0 0Z"/><path fill="#165132" d="M358 265c6 2 13 2 19 2l37-1c-6-3-13-1-19 0l-37-1Zm-149 2h6-6Z"/><path fill="#0D733D" d="m402 266 6 1-6-1Zm-191 1 3 4 1-4h-4Zm-3 1c-1 0 0 0 0 0 1 0 0 0 0 0Z"/><path fill="#01A54F" d="M214 268c-12 0-25 8-36 13-19 9-36 20-51 34-16 15-31 32-50 44-6 4-11 1-18 0-8-1-25-1-31 6-4 5-1 13 0 19 1 7 0 17-3 25s-13 14-13 24 11 21 19 26c3 2 7 4 11 3 7-1 14-10 21-9 5 1 8 5 12 7 7 4 16 3 22-3 8-8 7-22 8-32l2-14-2-13c3-15 16-29 27-38 13-11 26-20 40-29 7-4 18-9 23-16 3-2 3-5 3-8 2-6 3-13 6-18 3-7 9-14 10-21Z"/><path fill="#165132" d="M579 269c-1 0 0 0 0 0 1 0 0 0 0 0Zm-376 1c-1 0 0 0 0 0 1 0 0 0 0 0Z"/><path fill="#0D733D" d="M201 271c-1 0 0 0 0 0 1 0 0 0 0 0Z"/><path fill="#165132" d="M575 271c-1 0 0 0 0 0 1 0 0 0 0 0Zm-377 1c-1 0 0 0 0 0 1 0 0 0 0 0Zm375 0c-1 0 0 0 0 0 1 0 0 0 0 0Zm-377 1c-1 0 0 0 0 0 1 0 0 0 0 0Zm375 0c-1 0 0 0 0 0 1 0 0 0 0 0Zm-378 1c-1 0 0 0 0 0 1 0 0 0 0 0Zm376 0c-1 0 0 0 0 0 1 0 0 0 0 0Zm-378 1c-1 0 0 0 0 0 1 0 0 0 0 0Zm374 1c-1 0 0 0 0 0 1 0 0 0 0 0Z"/><path fill="#0D733D" d="M187 277c-1 0 0 0 0 0 1 0 0 0 0 0Z"/><path fill="#165132" d="M563 277c-1 0 0 0 0 0 1 0 0 0 0 0Zm-379 1c-1 0 0 0 0 0 1 0 0 0 0 0Zm25 0 1 1-1-1Zm352 0c-1 0 0 0 0 0 1 0 0 0 0 0Zm-379 1c-1 0 0 0 0 0 1 0 0 0 0 0Zm377 0c-1 0 0 0 0 0 1 0 0 0 0 0Z"/><path fill="#0D733D" d="M180 280c-1 0 0 0 0 0 1 0 0 0 0 0Zm47 0 1 1-1-1Z"/><path fill="#165132" d="M557 280c-1 0 0 0 0 0 1 0 0 0 0 0Z"/><path fill="#0D733D" d="M178 281c-1 0 0 0 0 0 1 0 0 0 0 0Z"/><path fill="#165132" d="M555 281c-1 0 0 0 0 0 1 0 0 0 0 0Z"/><path fill="#0D733D" d="M176 282c-1 0 0 0 0 0 1 0 0 0 0 0Z"/><path fill="#165132" d="M553 282c-1 0 0 0 0 0 1 0 0 0 0 0Z"/><path fill="#0D733D" d="M174 283c-1 0 0 0 0 0 1 0 0 0 0 0Z"/><path fill="#165132" d="M551 283c-1 0 0 0 0 0 1 0 0 0 0 0Z"/><path fill="#0D733D" d="M172 284c-1 0 0 0 0 0 1 0 0 0 0 0Zm-7 4c-1 0 0 0 0 0 1 0 0 0 0 0Zm366 2 2 3c0-2-1-3-2-3Zm-329 1 1 1-1-1Zm331 2 2 3c0-2-1-3-2-3Z"/><path fill="#165132" d="M199 303v3-3Z"/><path fill="#0D733D" d="m544 314 2 3c0-2-1-3-2-3Zm4 6 2 3c0-2-1-3-2-3Zm-338 1 1 1-1-1Z"/><path fill="#165132" d="m206 330-1 5c1-2 2-3 1-5Z"/><path fill="#9A8E31" d="m314 336 1 1-1-1Zm17 0 2 3c0-2-1-3-2-3Zm128 0 1 1-1-1Z"/><path fill="#165132" d="m559 341 1 10c1-4 0-7-1-10Zm-359 5v3-3Zm-1 3v3-3Z"/><path fill="#0D733D" d="m560 351 1 7c1-3 1-5-1-7Z"/><path fill="#165132" d="M562 357v5-5Zm-523 2c6 2 15 0 21 0-6-3-14-1-21 0Z"/><path fill="#0D733D" d="M562 362v4-4Zm-531 1c-1 0 0 0 0 0 1 0 0 0 0 0Z"/><path fill="#165132" d="m195 366-2 10c2-3 3-7 2-10Z"/><path fill="#0D733D" d="M563 366v4-4Zm-538 2v6-6Zm539 3v6-6Z"/><path fill="#61973C" d="m435 372 1 1-1-1Zm-81 1 1 1-1-1Zm29 0 14 1c-4-2-10-1-14-1Zm29 0 1 1-1-1Zm22 0 1 1-1-1Z"/><path fill="#9A8E31" d="M380 374c6 2 14 1 20 1-6-3-14-1-20-1Z"/><path fill="#61973C" d="M401 374c-1 0 0 0 0 0 1 0 0 0 0 0Z"/><path fill="#9A8E31" d="M411 374c-1 0 0 0 0 0 1 0 0 0 0 0Zm22 0 1 1-1-1Zm-96 1 1 1-1-1Zm42 0c-1 0 0 0 0 0 1 0 0 0 0 0Zm22 0 8 1-8-1Z"/><path fill="#165132" d="M565 375v7-7Z"/><path fill="#9A8E31" d="M373 376c-1 0 0 0 0 0 1 0 0 0 0 0Zm-3 1c-1 0 0 0 0 0 1 0 0 0 0 0Z"/><path fill="#61973C" d="M365 378c-1 0 0 0 0 0 1 0 0 0 0 0Z"/><path fill="#9A8E31" d="M367 378c-1 0 0 0 0 0 1 0 0 0 0 0Zm64 0v3-3Z"/><path fill="#0D733D" d="M192 380v3-3Zm-165 3v6-6Zm164 1v3-3Zm375 1v6-6Z"/><path fill="#165132" d="M27 389v7-7Z"/><path fill="#9A8E31" d="M344 389v10-10Z"/><path fill="#A35B1F" d="m389 389 7 2c-2-2-5-2-7-2Z"/><path fill="#165132" d="M567 389v7-7Z"/><path fill="#613B1F" d="M387 391h7-7Z"/><path fill="#A35B1F" d="M386 391c-1 0-2 1-2 3l2-3Z"/><path fill="#231F1F" d="m365 415 14-2c2-1 5-3 8-2s3 7 4 10c1 9-2 18-2 28 19-1 14-30 11-42 0-5-1-15-6-16-7-2-14 6-19 10s-10 7-10 14Z"/><path fill="#0D733D" d="M189 392v3-3Zm-84 3v9-9Z"/><path fill="#165132" d="M106 395v5-5Z"/><path fill="#613B1F" d="M398 396v3-3Z"/><path fill="#9A8E31" d="m438 397 1 6c1-3 0-4-1-6Z"/><path fill="#61973C" d="M343 398v5-5Zm96 0 1 1-1-1Z"/><path fill="#165132" d="M568 399v5-5Z"/><path fill="#613B1F" d="M399 400v3-3Z"/><path fill="#9A8E31" d="M343 403v5-5Z"/><path fill="#613B1F" d="M400 404v3-3Z"/><path fill="#9A8E31" d="m440 404 1 20c2-7 2-14-1-20Z"/><path fill="#0D733D" d="M568 404v5-5Zm-543 2 1 1-1-1Z"/><path fill="#61973C" d="M342 406v9-9Z"/><path fill="#165132" d="M569 407v6-6Z"/><path fill="#613B1F" d="M401 408v6-6Zm-37 1v5l2-5h-2Z"/><path fill="#A35B1F" d="M363 410v3-3Zm39 0v5-5Z"/><path fill="#165132" d="M107 411v4-4Z"/><path fill="#A35B1F" d="m384 411 4 1 1 7v-8h-5Zm-1 1c-1 0 0 0 0 0 1 0 0 0 0 0Z"/><path fill="#613B1F" d="M389 412v3-3Zm-12 1 3 1-3-1Z"/><path fill="#A35B1F" d="M381 413c-1 0 0 0 0 0 1 0 0 0 0 0Z"/><path fill="#0D733D" d="M569 413v4-4Z"/><path fill="#9A8E31" d="M343 415v4-4Z"/><path fill="#A35B1F" d="m366 415 9 1c-3-2-6-1-9-1Z"/><path fill="#613B1F" d="M402 415v8-8Z"/><path fill="#165132" d="m570 415 1 13c2-4 1-9-1-13Zm-464 3v3-3Zm76 1v3-3Z"/><path fill="#61973C" d="M343 419v6-6Z"/><path fill="#A35B1F" d="m390 420-2 28c3-7 5-22 2-28Zm13 1v4-4Z"/><path fill="#0D733D" d="M570 421v5-5Z"/><path fill="#165132" d="M105 423v5-5Zm76 0 1 1-1-1Z"/><path fill="#61973C" d="M441 424v3-3Z"/><path fill="#9A8E31" d="M344 425v3-3Z"/><path fill="#613B1F" d="M403 425v9-9Z"/><path fill="#9A8E31" d="m440 427-1 8c2-3 2-5 1-8Zm-95 1v3-3Z"/><path fill="#0D733D" d="M571 428v8-8Z"/><path fill="#165132" d="M11 431v6-6Zm561 0v6-6Zm-468 1v5-5Z"/><path fill="#613B1F" d="M390 432v5-5Z"/><path fill="#A35B1F" d="M403 434v3-3Z"/><path fill="#613B1F" d="M402 435v3-3Z"/><path fill="#0D733D" d="M572 437v6-6Z"/><path fill="#613B1F" d="M401 439v3-3Z"/><path fill="#9A8E31" d="M437 439v3-3Z"/><path fill="#613B1F" d="M389 440v3-3Z"/><path fill="#A35B1F" d="M408 442c4 1 7 0 11 2-3-4-7-3-11-2Zm-8 0 1 1-1-1Z"/><path fill="#165132" d="M573 442v6-6Zm-558 1 2 3c0-2-1-3-2-3Zm161 0-1 28c2-5 1-11 1-16 0-4 2-8 0-12Z"/><path fill="#0D733D" d="M177 443v5-5Z"/><path fill="#231F1F" d="M408 444c-2 1-1 3 0 4 3 1 7 1 9-1 4-4-7-5-9-3Z"/><path fill="#613B1F" d="M419 444v3-3Z"/><path fill="#0D733D" d="M573 448v6-6Z"/><path fill="#A35B1F" d="M415 449c-1 0 0 0 0 0 1 0 0 0 0 0Zm-25 1 3 1-3-1Z"/><path fill="#0D733D" d="M176 451v5-5Zm-116 2 5 1-5-1Zm-2 1c-1 0 0 0 0 0 1 0 0 0 0 0Z"/><path fill="#165132" d="m59 454 7 1-7-1Zm8 1c-1 0 0 0 0 0 1 0 0 0 0 0Zm507 0v31c4-8 3-24 0-31Zm-483 6h4-4Z"/><path fill="#9A8E31" d="M375 460c-1 0 0 0 0 0 1 0 0 0 0 0Z"/><path fill="#0D733D" d="M34 461c-1 0 0 0 0 0 1 0 0 0 0 0Zm11 0 3 1-3-1Z"/><path fill="#613B1F" d="M159 461v13c2-4 2-10 0-13Z"/><path fill="#165132" d="M36 462c-1 0 0 0 0 0 1 0 0 0 0 0Zm8 0c-1 0 0 0 0 0 1 0 0 0 0 0Z"/><path fill="#0D733D" d="M78 462c-1 0 0 0 0 0 1 0 0 0 0 0Z"/><path fill="#165132" d="M90 462c-1 0 0 0 0 0 1 0 0 0 0 0Z"/><path fill="#61973C" d="M379 462c-1 0 0 0 0 0 1 0 0 0 0 0Zm38 0c-1 0 0 0 0 0 1 0 0 0 0 0Z"/><path fill="#165132" d="m37 463 6 1-6-1Zm42 0 10 1c-3-2-7-1-10-1Z"/><path fill="#61973C" d="M383 463c-1 0 0 0 0 0 1 0 0 0 0 0Z"/><path fill="#9A8E31" d="M384 463c3 2 6 2 10 2-3-2-7-2-10-2Zm29 0 3 1-3-1Z"/><path fill="#0D733D" d="M574 463v16c2-6 2-11 0-16Z"/><path fill="#9A8E31" d="m395 465 12 1c-4-2-8-1-12-1Z"/><path fill="#61973C" d="M408 465c-1 0 0 0 0 0 1 0 0 0 0 0Z"/><path fill="#0D733D" d="M176 478v6-6Z"/><path fill="#165132" d="M176 484v5-5Zm397 4v5-5Z"/><path fill="#0D733D" d="M572 492v3-3Z"/><path fill="#165132" d="M177 495v7-7Zm395 0-2 11c2-4 3-8 2-11Z"/><path fill="#0D733D" d="M178 500v5-5Z"/><path fill="#165132" d="M178 505v7-7Zm3 18v5-5Z"/><path fill="#0D733D" d="m535 524 10 1c-3-2-7-1-10-1Zm28 0 1 1-1-1Zm-381 2v3-3Z"/><path fill="#165132" d="M531 526c-1 0 0 0 0 0 1 0 0 0 0 0Zm-2 1c-1 0 0 0 0 0 1 0 0 0 0 0Zm27 4 4 1-4-1Zm-373 3 1 7c1-3 0-5-1-7Z"/><path fill="#0D733D" d="M523 538c-1 0 0 0 0 0 1 0 0 0 0 0Zm1 1 3 1-3-1Zm4 1c-1 0 0 0 0 0 1 0 0 0 0 0Zm-343 1 1 1-1-1Zm345 0c-1 0 0 0 0 0 1 0 0 0 0 0Zm3 1c-1 0 0 0 0 0 1 0 0 0 0 0Zm2 1c-1 0 0 0 0 0 1 0 0 0 0 0Zm1 1 3 1-3-1Zm-350 1 1 1-1-1Zm354 0c-1 0 0 0 0 0 1 0 0 0 0 0Z"/><path fill="#165132" d="M543 546c-1 0 0 0 0 0 1 0 0 0 0 0Zm2 1c-1 0 0 0 0 0 1 0 0 0 0 0Z"/><path fill="#0D733D" d="M547 548c-1 0 0 0 0 0 1 0 0 0 0 0Zm-322 1c-1 0 0 0 0 0 1 0 0 0 0 0Z"/><path fill="#165132" d="M550 549c-1 0 0 0 0 0 1 0 0 0 0 0Zm2 1c-1 0 0 0 0 0 1 0 0 0 0 0Z"/><path fill="#0D733D" d="M554 551c-1 0 0 0 0 0 1 0 0 0 0 0Z"/><path fill="#165132" d="M557 552c-1 0 0 0 0 0 1 0 0 0 0 0Zm2 1c-1 0 0 0 0 0 1 0 0 0 0 0Z"/><path fill="#0D733D" d="M188 554v3-3Z"/><path fill="#165132" d="M561 554c-1 0 0 0 0 0 1 0 0 0 0 0Zm2 1c-1 0 0 0 0 0 1 0 0 0 0 0Zm2 1c-1 0 0 0 0 0 1 0 0 0 0 0Zm2 1c-1 0 0 0 0 0 1 0 0 0 0 0Zm-372 1c-1 0 0 0 0 0 1 0 0 0 0 0Zm374 0c-1 0 0 0 0 0 1 0 0 0 0 0Zm-379 1 4 1-4-1Zm385 2c-1 0 0 0 0 0 1 0 0 0 0 0Zm2 1c-1 0 0 0 0 0 1 0 0 0 0 0Z"/><path fill="#0D733D" d="M233 563c-1 0 0 0 0 0 1 0 0 0 0 0Z"/><path fill="#165132" d="M579 563c-1 0 0 0 0 0 1 0 0 0 0 0Zm-349 1c-1 0 0 0 0 0 1 0 0 0 0 0Z"/><path fill="#0D733D" d="M228 565c-1 0 0 0 0 0 1 0 0 0 0 0Zm-3 1c-1 0 0 0 0 0 1 0 0 0 0 0Z"/><path fill="#165132" d="M584 566c-1 0 0 0 0 0 1 0 0 0 0 0Zm-362 1c-1 0 0 0 0 0 1 0 0 0 0 0Z"/><path fill="#0D733D" d="M217 569c-1 0 0 0 0 0 1 0 0 0 0 0Zm-5 2c-1 0 0 0 0 0 1 0 0 0 0 0Z"/><path fill="#165132" d="M209 572c-1 0 0 0 0 0 1 0 0 0 0 0Z"/><path fill="#0D733D" d="M207 573c-1 0 0 0 0 0 1 0 0 0 0 0Z"/><path fill="#165132" d="M204 574c-1 0 0 0 0 0 1 0 0 0 0 0Z"/><path fill="#0D733D" d="M202 575c-1 0 0 0 0 0 1 0 0 0 0 0Zm-2 1c-1 0 0 0 0 0 1 0 0 0 0 0Zm-2 1c-1 0 0 0 0 0 1 0 0 0 0 0Zm-2 1c-1 0 0 0 0 0 1 0 0 0 0 0Zm-30 16 7-2c-3-1-5 0-7 2Z"/><path fill="#165132" d="M259 623v8-8Z"/><path fill="#0D733D" d="M475 623c-1 0 0 0 0 0 1 0 0 0 0 0Zm-3 1c-1 0 0 0 0 0 1 0 0 0 0 0Zm-3 1c-1 0 0 0 0 0 1 0 0 0 0 0Zm-3 1c-1 0 0 0 0 0 1 0 0 0 0 0Zm-3 1c-1 0 0 0 0 0 1 0 0 0 0 0Z"/><path fill="#165132" d="m454 630 7-1c-3-1-5 0-7 1Zm-188 7c-1 0 0 0 0 0 1 0 0 0 0 0Zm39 0c5 2 12 1 17 1-5-2-12-1-17-1Zm-37 1c-1 0 0 0 0 0 1 0 0 0 0 0Zm3 1c-1 0 0 0 0 0 1 0 0 0 0 0Z"/><path fill="#0D733D" d="M295 639c-1 0 0 0 0 0 1 0 0 0 0 0Zm49 0 8 1-8-1Zm73 0c-1 0 0 0 0 0 1 0 0 0 0 0Zm145 0 2 25c3-7 1-19-2-25Z"/><path fill="#165132" d="M275 640c3 2 8 2 12 2-4-2-8-2-12-2Zm72 0 8 1-8-1Zm10 1 8 1-8-1Zm48 1h6-6Zm-40 0 9 1c-3-2-6-1-9-1Zm11 1c6 2 16 1 23 1-6-3-16-1-23-1Zm186 2v5-5Zm75 1 2 10c1-4 0-7-2-10Z"/><path fill="#0D733D" d="M639 656v3-3Z"/><path fill="#165132" d="M197 657v4-4Zm443 0 1 16c2-5 1-12-1-16Zm-444 7v5-5Z"/><path fill="#0D733D" d="m565 664 1 15c2-5 1-11-1-15Zm-370 1-2 20c2-6 4-15 2-20Zm445 0v5-5Zm-519 1 1 1-1-1Zm-1 4v5-5Z"/><path fill="#165132" d="M565 673v4-4Z"/><path fill="#0D733D" d="M641 673v25c2-9 2-17 0-25Z"/><path fill="#165132" d="m642 674-1 36c3-8 2-18 2-25l-1-11Zm-523 3v3-3Zm447 2v7-7Z"/><path fill="#0D733D" d="M567 683v9-9Zm-449 1v9-9Z"/><path fill="#165132" d="M193 685v5-5Z"/><path fill="#0D733D" d="M192 686v8-8Z"/><path fill="#165132" d="M567 692v6-6Z"/><path fill="#0D733D" d="M568 693v9-9Z"/><path fill="#165132" d="M192 694v5-5Z"/><path fill="#0D733D" d="M117 696v10-10Zm74 1v6-6Z"/><path fill="#165132" d="M191 703v16c2-6 2-11 0-16Z"/><path fill="#0D733D" d="M190 704v47c2-4 1-9 1-13v-22c0-4 1-9-1-12Zm450 0v7-7Zm-71 1v19c2-5 2-15 0-19Z"/><path fill="#165132" d="m117 706 1 23c2-8 1-16-1-23Zm523 5v7-7Z"/><path fill="#0D733D" d="M118 713v7-7Zm521 0v5-5Zm-1 8v5-5Zm-70 3-1 14c2-5 3-10 1-14Zm-449 1v5-5Z"/><path fill="#165132" d="M638 726v13c2-4 2-10 0-13Zm-518 8v4-4Zm446 4v4-4Zm-375 1v14c2-4 2-10 0-14Z"/><path fill="#0D733D" d="M121 740v9-9Zm518 0 1 1-1-1Zm-73 2v4-4Zm75 3 1 1-1-1Zm1 2 1 1-1-1Zm-77 1v7-7Zm-374 5v7-7Z"/><path fill="#165132" d="M192 755v7-7Zm372 0v4-4Zm-1 5 1 1-1-1Z"/><path fill="#0D733D" d="M77 808v8-8Z"/><path fill="#165132" d="M527 808v10-10Z"/><path fill="#0D733D" d="M540 832c-1 0 0 0 0 0 1 0 0 0 0 0Zm-312 1v3-3Zm316 0c-1 0 0 0 0 0 1 0 0 0 0 0Zm4 1c-1 0 0 0 0 0 1 0 0 0 0 0Zm3 1c-1 0 0 0 0 0 1 0 0 0 0 0Zm4 1c-1 0 0 0 0 0 1 0 0 0 0 0Zm4 1c-1 0 0 0 0 0 1 0 0 0 0 0Z"/><path fill="#165132" d="m643 837-1 3 1-3Zm-2 3-1 3 1-3Zm-76 1v13c2-4 2-10 0-13Z"/><path fill="#0D733D" d="M566 841v15c2-5 2-11 0-15Zm-358 4 11 1c-3-2-7-1-11-1Zm-4 1c-1 0 0 0 0 0 1 0 0 0 0 0Z"/><path fill="#165132" d="m637 847-1 10c1-3 2-7 1-10Z"/><path fill="#0D733D" d="M635 855v4-4Z"/><path fill="#165132" d="M566 856v5-5Zm-445 1 1 1-1-1Z"/><path fill="#0D733D" d="M567 857v4-4Z"/><path fill="#165132" d="M193 859v7-7Zm442 0v5-5Zm-512 4v4-4Z"/><path fill="#0D733D" d="M569 864v3-3Z"/><path fill="#165132" d="M634 865v5-5Zm-442 1 1 1-1-1Zm-1 4v3-3Zm441 1-1 4c1-2 2-2 1-4Zm-508 2v4-4Zm1 4 1 1-1-1Zm1 3 1 1-1-1Z"/><path fill="#0D733D" d="M589 881c-1 0 0 0 0 0 1 0 0 0 0 0Zm31 0c-1 0 0 0 0 0 1 0 0 0 0 0Z"/><path fill="#165132" d="m598 883 13 1c-4-2-9-1-13-1Z"/><path fill="#0D733D" d="M133 888c-1 0 0 0 0 0 1 0 0 0 0 0Z"/><path fill="#165132" d="M175 888c-1 0 0 0 0 0 1 0 0 0 0 0Z"/><path fill="#0D733D" d="M136 889c-1 0 0 0 0 0 1 0 0 0 0 0Z"/><path fill="#165132" d="M172 889c-1 0 0 0 0 0 1 0 0 0 0 0Zm-32 1c-1 0 0 0 0 0 1 0 0 0 0 0Z"/><path fill="#0D733D" d="M167 890c-1 0 0 0 0 0 1 0 0 0 0 0Zm-15 1 10 1c-3-2-7-1-10-1Z"/></svg>