<?xml version="1.0" encoding="utf-8"?>
<svg width="272" height="232" viewBox="0 0 272 232" fill="none" xmlns="http://www.w3.org/2000/svg">
  <g>
    <rect width="272" height="232" fill="#F3F4F6" fill-rule="evenodd" />
    <g id="Group" transform="translate(112 95)">
      <path id="Path" d="M17.1256 3.32512C17.1256 3.32512 7.64849 -2.159 2.94537 0.958728C-1.75775 4.07645 0.581993 11.6075 0.581993 11.6075C0.581993 11.6075 32.4876 12.7907 32.4876 12.7907C32.4876 12.7907 33.7461 7.86268 30.1242 4.50832C26.5023 1.15396 17.1256 3.32512 17.1256 3.32512C17.1256 3.32512 17.1256 3.32512 17.1256 3.32512Z" fill="#FFFFFF" fill-rule="evenodd" transform="translate(9.926 2.592)" />
      <path id="Path" d="M0 0.112403L0.11817 0L0 0L0 0.112403Z" fill="#3D825E" transform="translate(22.697 9.691)" />
      <g id="Group" transform="translate(3.914 23.381)">
        <path id="Path" d="M0.584938 1.91087C0.709019 1.91087 0.821272 1.91087 0.945353 2.02327C1.53029 1.91087 1.89071 1.68014 2.12704 1.23644C2.25112 0.674427 2.00887 0.337216 1.41803 0.112405C1.29986 0 1.1817 0 0.945353 0C0.584938 0.112405 0.230429 0.337211 0 0.78091C0 0.78091 0 1.12404 0 1.12404C0 1.23644 0.118166 1.46125 0.348595 1.68014C0.348595 1.79255 0.466763 1.91087 0.584929 1.91087C0.584929 1.91087 0.584938 1.91087 0.584938 1.91087Z" fill="#211E1F" transform="translate(22.576 0.45)" />
        <path id="Path" d="M1.42393 0.112405C1.42393 0.112405 1.29985 0.112405 1.06352 0C0.590843 0.112405 0.236342 0.449616 0 0.786827C0 0.786827 0 1.12404 0 1.12404C0.118167 1.34293 0.236334 1.57365 0.360415 1.68606C0.466763 1.79846 0.590843 1.91086 0.714925 1.91086C0.827187 2.02327 0.945354 2.02327 1.06352 2.02327C1.66027 2.02327 2.01478 1.68606 2.13295 1.23053C2.25111 0.674422 2.01478 0.337211 1.42393 0.112405C1.42393 0.112405 1.42393 0.112405 1.42393 0.112405Z" fill="#211E1F" transform="translate(13.099 0)" />
        <path id="Path" d="M0.00118104 1.6269C0.00118104 1.70735 0.000586011 1.78012 0 1.85407C0.193798 0.625319 0.302508 0 0.302508 0C0.302508 0 0.207971 0.54427 0.00118104 1.6269C0.00118104 1.6269 0.00118104 1.6269 0.00118104 1.6269Z" fill="#211E1F" transform="translate(0.069 7.572)" />
        <path id="Path" d="M0.0691313 0C0.0472686 0.139617 0.0242248 0.286925 0 0.440151C0.0171386 0.451389 0.0271819 0.469141 0.0419494 0.483336C0.060855 0.33248 0.0673552 0.173929 0.0691313 0C0.0691313 0 0.0691313 0 0.0691313 0Z" fill="#211E1F" transform="translate(0 9.427)" />
      </g>
      <g id="Group" transform="translate(3.86 33.248)">
        <path id="Path" d="M0.00118113 0C0.000586033 0.000591278 0.000586033 0.000591278 0 0.00118256C0.0679502 0.0715847 0.142392 0.136657 0.20798 0.209424C0.141806 0.137248 0.0697262 0.0703976 0.00118113 0C0.00118113 0 0.00118113 0 0.00118113 0Z" fill="#000000" transform="translate(3.355 2.939)" />
        <path id="Path" d="M0.0431304 0.114179C0.220385 0.16979 0.395269 0.224806 0.555394 0.280417C0.36632 0.197002 0.17666 0.101753 0 0C0.0248199 0.0354946 0.0431304 0.0739498 0.0431304 0.114179C0.0431304 0.114179 0.0431304 0.114179 0.0431304 0.114179Z" fill="#000000" transform="translate(3.75 3.259)" />
        <path id="Path" d="M0 0C0 0 0.0135864 0.0112387 0.0135864 0.0112387C0.0135864 0.0112387 0.0135864 0.0106474 0.0135864 0.0106474C0.0094483 0.00709981 0.00354311 0.00354761 0 0C0 0 0 0 0 0Z" fill="#000000" transform="translate(0.242 0.569)" />
        <path id="Path" d="M0.0537688 0C0.0366302 0.110627 0.0189056 0.223032 0 0.344311C0 0.344311 0 0.456716 0 0.456716C0.0496306 0.321833 0.0779936 0.185764 0.0957182 0.0425988C0.0809507 0.0289905 0.0708983 0.010652 0.0537688 4.51354e-06C0.0537688 4.51354e-06 0.0537688 0 0.0537688 0Z" fill="#000000" />
      </g>
      <path id="Shape" d="M7.14704 9.08697C6.91071 7.0637 7.38337 5.15875 8.45281 3.5851C9.39816 3.2538 10.3494 2.91659 11.1766 2.35457C11.6493 2.01736 12.2401 1.68015 12.9491 1.56775C13.54 1.34294 14.2549 1.11813 14.8457 1.00573C15.5548 1.00573 16.2638 0.893324 16.9787 0.893324C18.3967 1.68015 19.7025 2.46698 20.8842 3.5851C20.8842 3.5851 21.8354 4.37784 21.8354 4.37784C22.1899 5.83317 22.1899 7.40091 21.7173 8.97456C21.2387 10.3175 20.5297 11.4415 19.4602 12.5656C18.1604 13.9085 16.6183 14.8077 14.7276 15.2573C12.9491 15.5946 11.2948 15.1449 9.75267 14.0209C8.21057 12.678 7.38339 11.1043 7.14705 9.08697C7.14705 9.08697 7.14704 9.08697 7.14704 9.08697ZM25.3864 6.28279C25.9772 5.72077 26.5681 5.04635 27.1589 4.48433C28.9374 3.6975 30.834 3.36029 32.8428 3.5851C34.0304 3.80991 35.094 4.26544 36.1634 4.82154C36.2816 4.93394 36.3997 4.93394 36.5179 5.15875C36.7542 6.05798 37.1087 6.95721 37.6996 7.73812C38.0541 8.41254 38.4145 9.08697 38.5327 9.76139C38.6449 10.3175 38.6449 10.7671 38.6449 11.3291C38.769 11.6663 38.8872 12.116 39.1176 12.5656C38.5327 13.3524 37.9359 14.1333 37.2269 14.9201C36.6302 15.5946 35.9271 16.3814 35.2121 17.0499C32.8429 17.5054 30.7099 17.1623 28.8192 16.0442C26.6863 14.8077 25.2623 13.2341 24.5533 11.1043C23.8443 9.31178 24.2047 7.73812 25.3864 6.28279C25.3864 6.28279 25.3864 6.28279 25.3864 6.28279ZM24.2047 22.6642C24.2047 22.6642 24.2047 22.321 24.2047 22.321C24.4351 21.8773 24.7896 21.6525 25.1501 21.5401C25.3864 21.5401 25.5046 21.5401 25.6227 21.6525C26.2136 21.8773 26.4558 22.2145 26.3317 22.7766C26.0954 23.2203 25.735 23.451 25.1501 23.5634C25.026 23.451 24.9137 23.451 24.7896 23.451C24.6715 23.451 24.5533 23.3327 24.5533 23.2203C24.3229 23.0014 24.2047 22.7766 24.2047 22.6642C24.2047 22.6642 24.2047 22.6642 24.2047 22.6642ZM16.8605 22.321C16.7424 22.7766 16.3878 23.1138 15.7911 23.1138C15.6729 23.1138 15.5548 23.1138 15.4425 23.0014C15.3184 23.0014 15.1943 22.889 15.088 22.7766C14.9639 22.6642 14.8457 22.4334 14.7276 22.2145C14.7276 22.2145 14.7276 21.8773 14.7276 21.8773C14.9639 21.5401 15.3184 21.2029 15.7911 21.0905C16.0274 21.2029 16.1515 21.2029 16.1515 21.2029C16.7424 21.4277 16.9787 21.7649 16.8605 22.321C16.8605 22.321 16.8605 22.321 16.8605 22.321ZM0.045114 25.6931C0.281448 27.5981 0.635958 29.3966 1.46314 31.1891C1.46314 31.1891 1.46314 31.3015 1.5754 31.3015C1.5943 31.1808 1.62503 31.279 1.5754 31.4139C1.5754 31.4139 1.69948 31.4139 1.69948 31.4139C1.69948 31.5263 1.69948 31.5263 1.81765 31.5263C1.82119 31.5299 1.8271 31.5334 1.83123 31.537C1.84246 31.547 1.85664 31.5571 1.86964 31.5671C1.93641 31.6174 2.01499 31.6689 2.09357 31.7204C2.16802 31.7683 2.2401 31.8156 2.29031 31.8635C2.40848 31.97 2.52665 32.0883 2.65073 32.0883C2.87111 32.2185 3.08322 32.3563 3.28884 32.5007C3.88855 32.9148 4.43449 33.3827 4.93139 33.8962C4.99934 33.9666 5.07201 34.0335 5.13819 34.1057C5.21027 34.1057 5.28117 34.1536 5.32549 34.2163C5.50215 34.3181 5.69181 34.4133 5.88088 34.4967C6.04632 34.5535 6.19698 34.6109 6.31987 34.6677C6.43804 34.7801 6.43804 34.7801 6.55621 34.7801C13.6641 37.3595 21.1205 38.0339 28.8192 36.8034C30.4795 36.3537 32.1398 36.0165 33.7941 35.7917C34.3672 35.6083 34.9108 35.3954 35.4544 35.1765C36.2579 34.857 37.0438 34.508 37.8237 34.1057C38.0541 34.1057 38.1723 33.9933 38.2963 33.8868C38.3909 33.8099 38.4854 33.727 38.5918 33.6501C39.1401 33.2129 39.6707 32.7763 40.1481 32.3433C40.2 32.296 40.255 32.2481 40.3052 32.2007C41.1324 31.1891 41.9655 30.1834 42.5563 29.0594C42.6745 28.4973 42.6745 28.0477 42.9108 27.4857C43.2654 26.3616 43.5076 25.2435 43.3835 24.0071C43.3835 22.2145 43.1472 20.4161 42.5563 18.8483C42.5563 18.6176 42.4382 18.5111 42.32 18.5111C41.2565 17.6119 40.1871 16.831 39.2417 16.0442C38.769 15.707 38.769 15.2573 39.0054 14.9201C39.0054 14.9201 39.1176 14.8077 39.1176 14.8077C39.1176 14.4705 39.2417 14.0209 39.3599 13.6837C39.9507 12.0035 40.0689 10.3175 39.8326 8.63734C39.5962 8.41254 39.3599 8.30013 39.2417 8.07533C38.645 7.40091 38.4145 6.8448 38.645 6.39518C38.5327 5.94557 38.4145 5.38355 38.2964 4.93394C38.1723 4.48432 37.936 4.14711 37.6996 3.8099C35.5667 1.45533 32.8429 0.337213 29.2919 0.337213C27.7557 0.337213 26.3318 0.786827 25.2624 1.56774C24.7897 1.90495 24.4352 2.12976 23.9625 2.24216C23.9625 2.35456 23.8443 2.46697 23.8443 2.46697C23.608 2.69178 23.3717 2.69178 23.1353 2.57937C22.8931 2.57937 22.6626 2.57937 22.4204 2.46697C21.1205 1.56774 19.7025 0.786827 18.2786 0C16.5001 0 14.7276 0.112403 13.0673 0.449614C10.3495 0.786825 8.09244 1.90495 6.43807 3.9223C6.43807 3.9223 6.43807 4.0347 6.3199 4.0347C6.3199 4.26542 6.3199 4.37783 6.19582 4.48431C6.19582 4.48431 6.07765 4.48431 5.96539 4.37783C5.84723 4.82153 5.72906 5.27114 5.72906 5.72076C5.72906 5.72076 5.72906 6.05796 5.72906 6.05796C5.72906 6.05796 5.72906 6.17037 5.72906 6.17037C5.84723 6.84479 5.96539 7.5133 5.96539 8.30012C5.96539 9.76137 6.3199 11.2167 6.91075 12.5655C7.26526 12.6779 7.5075 12.7844 7.61976 13.0092C7.85609 13.2341 7.85609 13.3524 7.73793 13.5713C7.26525 14.6953 6.19582 15.2573 4.7778 15.3697C4.65963 15.4821 4.65963 15.4821 4.54146 15.4821C4.30513 15.7069 4.06879 15.8194 3.71429 16.0442C2.76893 16.7186 1.81767 17.5054 0.98459 18.3987C0.98459 18.6176 0.872329 18.7359 0.754161 18.8483C0.635994 18.9607 0.511913 19.0731 0.511913 19.1855C0.04515 21.0905 -0.0789311 23.0014 0.04515 24.9063C0.04515 24.9063 0.045114 25.6931 0.045114 25.6931Z" fill="#00A44F" transform="translate(2.285 2.29)" />
      <path id="Shape" d="M1.48356 5.61427C1.95623 5.16466 2.31074 4.71504 2.78341 4.15302C4.08918 2.69177 5.74354 1.79846 7.64015 1.57365C9.89126 1.46125 11.782 2.36048 13.2059 4.15302C13.2059 4.15302 13.4422 6.50759 13.4422 6.50759L13.3241 6.61999C13.3241 6.61999 13.3241 6.50759 13.3241 6.50759C12.0242 5.61427 10.4821 5.16466 8.82184 5.16466C6.09805 5.05225 3.72877 5.72668 1.60172 7.18201C1.60172 7.18201 1.48356 5.61427 1.48356 5.61427ZM2.66525 13.1276C4.20735 14.2516 5.86171 14.7012 7.64015 14.364C9.53085 13.9144 11.073 13.0152 12.3728 11.6722C13.4422 10.5482 14.1512 9.42417 14.6298 8.08124C15.1025 6.50759 15.1025 4.93985 14.748 3.48452C14.748 3.48452 13.7967 2.69177 13.7967 2.69177C12.6151 1.57365 11.3093 0.786825 9.89126 0C9.17634 0 8.46733 0.112403 7.75832 0.112403C7.16747 0.224806 6.45255 0.449614 5.8617 0.674422C5.15269 0.786825 4.56185 1.12404 4.08917 1.46125C3.26199 2.02327 2.31074 2.36048 1.36538 2.69178C0.295956 4.26543 -0.176721 6.17038 0.0596132 8.19364C0.295947 10.211 1.12313 11.7846 2.66524 13.1276C2.66524 13.1276 2.66525 13.1276 2.66525 13.1276Z" fill="#211E1F" transform="translate(9.373 3.183)" />
      <path id="Shape" d="M2.02242 3.77178C2.73143 2.99087 3.56452 2.42885 4.50396 2.09164C5.9338 1.41721 7.58816 1.19241 9.13027 1.30481C10.0756 2.20404 11.021 3.10327 11.7359 4.10899C12.439 4.89582 12.9176 5.79504 13.0357 6.68836C12.7994 6.46947 12.439 6.24466 12.0904 6.13226C11.1391 5.57024 10.1938 5.00822 9.13027 4.67101C6.87916 3.88418 4.62804 3.77178 2.26467 4.3338C2.14059 4.3338 2.02242 4.3338 1.78609 4.4462C1.78609 4.4462 2.02242 3.77178 2.02242 3.77178ZM4.62804 12.5274C6.51874 13.6456 8.65169 13.9887 11.021 13.5332C11.7359 12.8647 12.439 12.0778 13.0358 11.4034C13.7448 10.6166 14.3415 9.83566 14.9265 9.04884C14.696 8.59922 14.5779 8.14961 14.4538 7.8124C14.4538 7.25038 14.4538 6.80076 14.3415 6.24466C14.2233 5.57024 13.8629 4.89582 13.5084 4.22139C12.9176 3.44048 12.5631 2.54125 12.3267 1.64202C12.2086 1.41721 12.0904 1.41721 11.9722 1.30481C10.9028 0.748709 9.83928 0.293178 8.65169 0.0683699C6.64282 -0.156438 4.74621 0.180773 2.96777 0.9676C2.37693 1.52962 1.78609 2.20404 1.19524 2.76606C0.0135555 4.22139 -0.346859 5.79505 0.362152 7.58759C1.07116 9.71735 2.4951 11.291 4.62804 12.5274C4.62804 12.5274 4.62804 12.5274 4.62804 12.5274Z" fill="#211E1F" transform="translate(26.476 5.807)" />
      <path id="Shape" d="M2.79709 21.4758C2.79709 21.3634 2.92117 21.251 3.03934 21.1386C3.1575 21.0262 3.26976 20.9078 3.26976 20.689C4.10286 19.7956 5.05412 19.0088 5.99946 18.3344C6.35397 18.1096 6.5903 17.9972 6.82664 17.7724C6.9448 17.7724 6.9448 17.7724 7.06297 17.66C8.48099 17.5476 9.55043 16.9855 10.0231 15.8615C10.1413 15.6426 10.1413 15.5243 9.90493 15.2995C9.79267 15.0747 9.55042 14.9682 9.19592 14.8558C8.60507 13.5069 8.25056 12.0516 8.25056 10.5904C8.25056 9.80353 8.1324 9.13503 8.01423 8.46061C8.01423 8.46061 8.01423 8.3482 8.01423 8.3482C8.01423 8.3482 8.01423 8.01099 8.01423 8.01099C8.01423 7.56138 8.1324 7.11176 8.25056 6.66806C8.36283 6.77455 8.48099 6.77455 8.48099 6.77455C8.60507 6.66806 8.60507 6.55566 8.60507 6.32494C8.72324 6.32494 8.72324 6.21253 8.72324 6.21253C10.3776 4.19518 12.6346 3.07706 15.3525 2.73985C17.0128 2.40264 18.7853 2.29024 20.5638 2.29024C21.9877 3.07706 23.4057 3.85797 24.7056 4.7572C24.9478 4.86961 25.1782 4.86961 25.4205 4.86961C25.6568 4.98201 25.8932 4.98201 26.1295 4.7572C26.1295 4.7572 26.2477 4.6448 26.2477 4.5324C26.7203 4.41999 27.0748 4.19518 27.5475 3.85797C28.6169 3.07706 30.0409 2.62745 31.5771 2.62745C35.128 2.62745 37.8577 3.74557 39.9848 6.10013C40.2211 6.43734 40.4575 6.77456 40.5815 7.22417C40.6997 7.67379 40.8179 8.2358 40.936 8.68542C40.6997 9.13503 40.936 9.69114 41.5269 10.3656C41.6451 10.5904 41.8873 10.7028 42.1177 10.9276C42.36 12.6077 42.2359 14.2938 41.6451 15.9739C41.5269 16.3111 41.4087 16.7607 41.4087 17.098C41.4087 17.098 41.2906 17.2104 41.2906 17.2104C41.0542 17.5476 41.0542 17.9972 41.5269 18.3344C42.4722 19.1212 43.5417 19.9021 44.6052 20.8014C44.7234 20.8014 44.8415 20.9079 44.8415 21.1386C45.4324 22.7063 45.6687 24.5048 45.6687 26.2973C45.7928 27.5338 45.5505 28.6519 45.196 29.7759C44.9597 30.3379 44.9597 30.7875 44.8415 31.3496C44.2507 32.4736 43.4176 33.4793 42.5963 34.491C42.5455 34.5383 42.4858 34.5862 42.4332 34.6335C41.9558 35.0666 41.4253 35.5032 40.8769 35.9404C40.7706 36.0173 40.6761 36.1001 40.5815 36.177C40.4574 36.2835 40.3393 36.3959 40.1088 36.3959C39.3289 36.7982 38.5431 37.1472 37.7396 37.4667C37.196 37.6856 36.6524 37.8986 36.0793 38.082C34.4249 38.3068 32.7647 38.644 31.1044 39.0936C23.4057 40.3241 15.9493 39.6497 8.8414 37.0703C8.72323 37.0703 8.72323 37.0703 8.60507 36.9579C8.48217 36.9011 8.33151 36.8437 8.16607 36.7869C8.00595 36.7313 7.83106 36.6763 7.65381 36.6207C7.65381 36.5805 7.63549 36.542 7.61068 36.5065C7.56636 36.4438 7.49546 36.3959 7.42338 36.3959C7.3578 36.3231 7.28335 36.2581 7.2154 36.1877C6.88393 35.8457 6.52943 35.5239 6.14715 35.2245C5.96222 35.0743 5.77079 34.9293 5.57403 34.7909C5.36842 34.6465 5.15631 34.5087 4.93592 34.3786C4.81184 34.3786 4.69367 34.2602 4.57551 34.1538C4.52351 34.107 4.45143 34.0591 4.37876 34.0106C4.30018 33.9591 4.22159 33.9076 4.15483 33.8574C4.14951 33.8538 4.14301 33.8497 4.13829 33.8461C4.13829 33.8461 4.11643 33.8278 4.11643 33.8278C4.11643 33.8278 4.10284 33.8165 4.10284 33.8165C3.98467 33.8165 3.98467 33.8165 3.98467 33.7041C3.98467 33.7041 3.86059 33.7041 3.86059 33.7041C3.86059 33.7041 3.86059 33.5917 3.86059 33.5917C3.74833 33.5917 3.74833 33.4793 3.74833 33.4793C2.92115 31.6868 2.56664 29.8883 2.33031 27.9834C2.33031 27.9834 2.33031 27.1965 2.33031 27.1965C2.20623 25.2916 2.33031 23.3807 2.79707 21.4758C2.79707 21.4758 2.79709 21.4758 2.79709 21.4758ZM4.82958 37.1177C5.36725 37.4194 5.89901 37.7625 6.35396 38.1944C6.56253 38.3387 6.77523 38.4777 6.98971 38.6126C8.60626 39.629 10.3918 40.3768 12.2742 40.7737C19.0276 42.1226 25.775 42.2291 32.4102 40.8862C32.4102 40.8862 34.8917 40.6613 35.4885 40.3241C35.843 40.2117 37.0247 40.0993 37.261 39.8745C38.2064 39.6793 39.134 39.3776 39.9966 39.0049C40.0262 39.0344 42.815 37.6442 42.6909 37.5318C43.0867 37.2419 43.4649 36.9165 43.8903 36.5083C44.6052 35.9522 45.1961 35.2778 45.5506 34.491C47.4472 31.5744 48.2744 28.3206 47.9198 24.7237C47.9198 23.8303 47.8017 23.0435 47.6835 22.3691C47.329 20.1269 46.0291 18.5592 43.8903 17.4352C44.487 16.3111 44.7234 14.9682 44.7234 13.6193C44.6052 11.7144 44.2507 9.69113 43.6599 7.78618C42.8327 5.4257 41.2906 3.63316 39.0395 2.51503C39.0395 2.51503 38.3305 2.17782 38.3305 2.17782C35.0099 0.266959 31.3408 -0.0702519 27.4353 1.27859C26.7204 1.6158 26.1295 1.9471 25.5387 2.40263C25.5387 2.40263 25.4205 2.51503 25.4205 2.51503C25.066 2.06542 24.8297 1.72821 24.357 1.5034C23.2876 0.604171 21.8695 0.154556 20.4456 0.0421511C18.4367 -0.0702519 16.6583 0.0421511 14.8798 0.379362C14.7558 0.379362 14.6435 0.379362 14.5253 0.491765C13.8163 0.491765 12.9891 0.716573 12.1561 1.05378C9.19594 2.17782 7.06299 4.19518 5.87538 7.11176C5.76312 7.44897 5.64496 7.78618 5.64496 8.12339C5.64496 10.5904 5.99946 12.9449 6.82664 15.2995C6.82664 15.2995 6.70848 15.4178 6.70848 15.4178C6.47214 15.5243 6.11763 15.6426 5.87538 15.8615C5.76312 15.8615 5.76312 15.8615 5.64496 15.9739C5.52087 15.9739 5.40862 16.0922 5.17228 16.0922C4.81186 16.3111 4.33919 16.5359 4.10285 16.8731C3.98469 16.8731 3.98469 16.9855 3.8606 16.9855C3.8606 16.9855 3.74834 16.9855 3.74834 16.9855C3.74834 17.0979 3.63018 17.2103 3.51201 17.2103C3.26976 17.4352 3.03933 17.66 2.68483 17.7724C2.68483 17.7724 2.68483 17.8848 2.68483 17.8848C2.56666 18.1096 2.56666 18.222 2.44258 18.3344C1.2609 19.3401 0.433717 20.689 0.197375 22.1443C-0.2753 26.1908 0.0792068 30.0007 1.49723 33.7041C1.6154 34.1537 2.41845 34.9513 2.72607 35.4188C2.72607 35.4188 4.7055 37.1887 4.82958 37.1177Z" fill="#211E1F" />
    </g>
  </g>
</svg>